<?xml version="1.0" encoding="us-ascii" standalone="no"?><svg xmlns="http://www.w3.org/2000/svg" xmlns:xlink="http://www.w3.org/1999/xlink" contentStyleType="text/css" height="476px" preserveAspectRatio="none" style="width:501px;height:476px;background:#FFFFFF;" version="1.1" viewBox="0 0 501 476" width="501px" zoomAndPan="magnify"><defs/><g><!--entity TrackerExample--><g id="elem_TrackerExample"><rect fill="#ADD8E6" height="52.5938" rx="2.5" ry="2.5" style="stroke:#181818;stroke-width:0.5;" width="133" x="268" y="137"/><text fill="#000000" font-family="sans-serif" font-size="14" font-style="italic" lengthAdjust="spacing" textLength="113" x="278" y="159.9951">&#171;AWS Lambda&#187;</text><text fill="#000000" font-family="sans-serif" font-size="14" lengthAdjust="spacing" textLength="112" x="278.5" y="176.292">tracker-lambda</text></g><!--entity TrackerHandler--><g id="elem_TrackerHandler"><rect fill="#ADD8E6" height="52.5938" rx="2.5" ry="2.5" style="stroke:#181818;stroke-width:0.5;" width="133" x="193" y="267"/><text fill="#000000" font-family="sans-serif" font-size="14" font-style="italic" lengthAdjust="spacing" textLength="113" x="203" y="289.9951">&#171;AWS Lambda&#187;</text><text fill="#000000" font-family="sans-serif" font-size="14" lengthAdjust="spacing" textLength="113" x="203" y="306.292">tracker-handler</text></g><!--entity TrackerGateway--><g id="elem_TrackerGateway"><rect fill="#ADD8E6" height="52.5938" rx="2.5" ry="2.5" style="stroke:#181818;stroke-width:0.5;" width="139" x="19" y="267"/><text fill="#000000" font-family="sans-serif" font-size="14" font-style="italic" lengthAdjust="spacing" textLength="113" x="32" y="289.9951">&#171;AWS Lambda&#187;</text><text fill="#000000" font-family="sans-serif" font-size="14" lengthAdjust="spacing" textLength="119" x="29" y="306.292">tracker-gateway</text></g><!--entity EventBridge--><g id="elem_EventBridge"><rect fill="#90EE90" height="52.5938" rx="2.5" ry="2.5" style="stroke:#181818;stroke-width:0.5;" width="192" x="238.5" y="7"/><text fill="#000000" font-family="sans-serif" font-size="14" font-style="italic" lengthAdjust="spacing" textLength="142" x="263.5" y="29.9951">&#171;AWS EventBridge&#187;</text><text fill="#000000" font-family="sans-serif" font-size="14" lengthAdjust="spacing" textLength="172" x="248.5" y="46.292">Rule for tracker-lambda</text></g><!--entity APIGateway--><g id="elem_APIGateway"><rect fill="#FFFFE0" height="52.5938" rx="2.5" ry="2.5" style="stroke:#181818;stroke-width:0.5;" width="163" x="7" y="137"/><text fill="#000000" font-family="sans-serif" font-size="14" font-style="italic" lengthAdjust="spacing" textLength="143" x="17" y="159.9951">&#171;AWS API Gateway&#187;</text><text fill="#000000" font-family="sans-serif" font-size="14" lengthAdjust="spacing" textLength="113" x="32" y="176.292">HTTP GET route</text></g><!--entity DynamoDB--><g id="elem_DynamoDB"><path d="M292.5,407.5 C292.5,397.5 370.5,397.5 370.5,397.5 C370.5,397.5 448.5,397.5 448.5,407.5 L448.5,449.0938 C448.5,459.0938 370.5,459.0938 370.5,459.0938 C370.5,459.0938 292.5,459.0938 292.5,449.0938 L292.5,407.5 " fill="#F1F1F1" style="stroke:#181818;stroke-width:0.5;"/><path d="M292.5,407.5 C292.5,417.5 370.5,417.5 370.5,417.5 C370.5,417.5 448.5,417.5 448.5,407.5 " fill="none" style="stroke:#181818;stroke-width:0.5;"/><text fill="#000000" font-family="sans-serif" font-size="14" font-style="italic" lengthAdjust="spacing" textLength="136" x="302.5" y="434.4951">&#171;AWS DynamoDB&#187;</text><text fill="#000000" font-family="sans-serif" font-size="14" lengthAdjust="spacing" textLength="80" x="330.5" y="450.792">DynamoDB</text></g><!--entity S3--><g id="elem_S3"><path d="M136.7509,407.1557 C140.3923,400.1962 146.2477,397.7007 152.1044,404.7229 C155.7673,397.3089 162.8213,397.0162 167.1838,403.9897 C170.265,397.5048 176.3743,397.4058 179.635,403.8164 C184.1987,397.0468 191.3196,398.6108 194.7451,405.1123 C198.9388,399.1079 205.6448,400.5459 208.6074,406.5352 C212.8497,399.6732 218.5575,399.4966 223.6916,405.4887 C230.2739,406.6181 231.9144,412.4955 228.3159,417.5335 C234.8448,419.9841 235.4354,425.4732 230.5806,429.993 C235.696,434.422 233.2236,439.4355 227.7159,441.1328 C232.5226,446.9621 230.8912,452.2661 223.2576,453.6724 C220.6175,457.558 216.743,457.2976 214.3176,453.4251 C212.0216,460.3815 208.2648,460.623 203.1738,456.1503 C200.3756,461.4077 195.7357,462.3643 192.0014,457.1488 C189.6901,463.1181 185.5301,465.8944 180.0432,460.4867 C175.4539,465.2983 170.8923,464.2105 169.4529,457.5731 C165.8573,462.0854 161.1382,460.4808 159.291,455.6677 C155.3394,459.9685 150.4072,460.6125 147.8867,454.1511 C144.5592,458.187 140.0741,458.2027 137.6432,453.1416 C131.3603,451.5206 129.5815,446.3887 134.6166,441.7584 C128.3235,439.6833 127.1231,433.2819 131.6339,428.7329 C127.6402,424.1048 128.2756,418.852 134.9822,417.3797 C131.1431,413.0507 131.7363,409.953 136.7509,407.1557 " fill="#F1F1F1" style="stroke:#181818;stroke-width:0.5;"/><text fill="#000000" font-family="sans-serif" font-size="14" font-style="italic" lengthAdjust="spacing" textLength="73" x="143" y="424.9951">&#171;AWS S3&#187;</text><text fill="#000000" font-family="sans-serif" font-size="14" lengthAdjust="spacing" textLength="73" x="143" y="441.292">S3 Bucket</text></g><!--link EventBridge to TrackerExample--><g id="link_EventBridge_TrackerExample"><path d="M334.5,60.095 C334.5,82.42 334.5,108.638 334.5,130.949 " fill="none" id="EventBridge-to-TrackerExample" style="stroke:#181818;stroke-width:1.0;"/><polygon fill="#181818" points="334.5,136.949,338.5,127.949,334.5,131.949,330.5,127.949,334.5,136.949" style="stroke:#181818;stroke-width:1.0;"/><text fill="#000000" font-family="sans-serif" font-size="13" lengthAdjust="spacing" textLength="158" x="335.5" y="103.0669">triggers every 2 minutes</text></g><!--link TrackerExample to TrackerHandler--><g id="link_TrackerExample_TrackerHandler"><path d="M319.503,190.095 C306.422,212.42 290.5773,239.4612 277.5043,261.7722 " fill="none" id="TrackerExample-to-TrackerHandler" style="stroke:#181818;stroke-width:1.0;"/><polygon fill="#181818" points="274.471,266.949,282.4721,261.206,276.9988,262.635,275.5698,257.1616,274.471,266.949" style="stroke:#181818;stroke-width:1.0;"/><text fill="#000000" font-family="sans-serif" font-size="13" lengthAdjust="spacing" textLength="49" x="302.5" y="233.0669">Invokes</text></g><!--link APIGateway to TrackerGateway--><g id="link_APIGateway_TrackerGateway"><path d="M88.5,190.095 C88.5,212.42 88.5,238.638 88.5,260.949 " fill="none" id="APIGateway-to-TrackerGateway" style="stroke:#181818;stroke-width:1.0;"/><polygon fill="#181818" points="88.5,266.949,92.5,257.949,88.5,261.949,84.5,257.949,88.5,266.949" style="stroke:#181818;stroke-width:1.0;"/><text fill="#000000" font-family="sans-serif" font-size="13" lengthAdjust="spacing" textLength="49" x="89.5" y="233.0669">Invokes</text></g><!--link TrackerExample to DynamoDB--><g id="link_TrackerExample_DynamoDB"><path d="M349.118,190.262 C353.591,199.374 357.99,209.879 360.5,220 C375.781,281.609 375.0879,350.5901 372.9689,391.4315 " fill="none" id="TrackerExample-to-DynamoDB" style="stroke:#181818;stroke-width:1.0;"/><polygon fill="#181818" points="372.658,397.4234,377.119,388.6427,372.9171,392.4301,369.1297,388.2282,372.658,397.4234" style="stroke:#181818;stroke-width:1.0;"/><text fill="#000000" font-family="sans-serif" font-size="13" lengthAdjust="spacing" textLength="31" x="373.5" y="298.0669">Uses</text></g><!--link TrackerHandler to DynamoDB--><g id="link_TrackerHandler_DynamoDB"><path d="M280.902,320.144 C299.298,342.185 322.0085,369.3975 341.4335,392.6722 " fill="none" id="TrackerHandler-to-DynamoDB" style="stroke:#181818;stroke-width:1.0;"/><polygon fill="#181818" points="345.278,397.2787,342.5822,387.806,342.0742,393.44,336.4402,392.932,345.278,397.2787" style="stroke:#181818;stroke-width:1.0;"/><text fill="#000000" font-family="sans-serif" font-size="13" lengthAdjust="spacing" textLength="31" x="319.5" y="363.0669">Uses</text></g><!--link TrackerHandler to S3--><g id="link_TrackerHandler_S3"><path d="M241.74,320.194 C235.49,329.479 228.526,340.111 222.5,350 C213.212,365.2421 206.3771,377.3118 198.5461,391.7205 " fill="none" id="TrackerHandler-to-S3" style="stroke:#181818;stroke-width:1.0;"/><polygon fill="#181818" points="195.681,396.9922,203.4932,390.9947,198.0686,392.5991,196.4642,387.1745,195.681,396.9922" style="stroke:#181818;stroke-width:1.0;"/><text fill="#000000" font-family="sans-serif" font-size="13" lengthAdjust="spacing" textLength="31" x="223.5" y="363.0669">Uses</text></g><!--link TrackerGateway to S3--><g id="link_TrackerGateway_S3"><path d="M106.0457,320.144 C121.024,342.034 139.212,368.6167 155.106,391.8473 " fill="none" id="TrackerGateway-to-S3" style="stroke:#181818;stroke-width:1.0;"/><polygon fill="#181818" points="158.494,396.7992,156.7133,387.1127,155.6707,392.6726,150.1107,391.63,158.494,396.7992" style="stroke:#181818;stroke-width:1.0;"/><text fill="#000000" font-family="sans-serif" font-size="13" lengthAdjust="spacing" textLength="31" x="138.5" y="363.0669">Uses</text></g><!--SRC=[ZP51Yy8m48Nl-HM3To_hJKImAYfuaBNBiiVHpiPYciWqrItB_lSDxSQcqYxc4CZaVScyUVavrHTap83fQ55BHV0jmAq8ZsV9fj39t2Z3aydiVGzRp0u9JgUmJUN9HggWVktoIjf6d2QIFB1Y8jrFp7ORMA6b6vQU-22bpAqVMPGQCxE8l7vk65M_V3_ombt15qNYHuZ6-C2oWuY7gh8v0CmXhalBByoS7jfZw69Fg1D57CBhklG4B6lt8Vmta7_WryBjduQXe_qW1EY89Nnc7SSxM2rZS4EpLD4kaFRthOH4WXOFc3lMnr1H_W2F4OcZCaK2W_q8ei9rQYkvEpNX215sF1nE7mCOWxEPIacS0rs9ItY1BDMkurmyI0FQ9p26ZRwQizC6rWATBpMwZZVl_iRmbZSI_yUJ4cUxVHcsSx_y1G00]--></g></svg>